<?xml version="1.0" encoding="utf-8"?>
<!-- Generator: Adobe Illustrator 16.0.0, SVG Export Plug-In . SVG Version: 6.00 Build 0)  -->
<!DOCTYPE svg PUBLIC "-//W3C//DTD SVG 1.1//EN" "http://www.w3.org/Graphics/SVG/1.1/DTD/svg11.dtd">
<svg version="1.1" id="Layer_1" xmlns="http://www.w3.org/2000/svg" xmlns:xlink="http://www.w3.org/1999/xlink" x="0px" y="0px"
	 width="500px" height="150px" viewBox="0 0 500 150" enable-background="new 0 0 500 150" xml:space="preserve">
<g>
	<g>
		<defs>
			<rect id="SVGID_1_" x="-8" y="17.992" width="500" height="114.017"/>
		</defs>
		<clipPath id="SVGID_2_">
			<use xlink:href="#SVGID_1_"  overflow="visible"/>
		</clipPath>
		<g clip-path="url(#SVGID_2_)">
			<defs>
				<rect id="SVGID_3_" x="-8" y="17.992" width="500" height="114.017"/>
			</defs>
			<clipPath id="SVGID_4_">
				<use xlink:href="#SVGID_3_"  overflow="visible"/>
			</clipPath>
			<g clip-path="url(#SVGID_4_)">
				<text transform="matrix(1 0 0 1 18.5811 113.6084)"><tspan x="0" y="0" font-family="'Roboto-Light'" font-size="104.803" letter-spacing="-1">F</tspan><tspan x="59.388" y="0" font-family="'Roboto-Light'" font-size="104.803">oodT me</tspan></text>
			</g>
		</g>
		<g clip-path="url(#SVGID_2_)">
		</g>
	</g>
	<path id="path3688" d="M325.415,78.353c0,19.48-3.834,26.301-1.631,33.178c1.05,3.276,5.541,2.891,6.316,0
		c1.784-6.662-1.555-11.553-1.555-32.915c0-2.613,3.74-6.256,3.74-12.99c0-11.972-1.696-28.247-5.393-28.247
		c-3.543,0-2.731,20.979-2.731,32.454C324.162,74.761,325.415,76.044,325.415,78.353L325.415,78.353z"/>
</g>
</svg>
