<?xml version="1.0" encoding="utf-8"?>
<!-- Generator: Adobe Illustrator 16.0.0, SVG Export Plug-In . SVG Version: 6.00 Build 0)  -->
<!DOCTYPE svg PUBLIC "-//W3C//DTD SVG 1.1//EN" "http://www.w3.org/Graphics/SVG/1.1/DTD/svg11.dtd">
<svg version="1.1" id="Layer_1" xmlns="http://www.w3.org/2000/svg" xmlns:xlink="http://www.w3.org/1999/xlink" x="0px" y="0px"
	 width="920px" height="920px" viewBox="0 0 920 920" enable-background="new 0 0 920 920" xml:space="preserve">
<circle fill="#29ABE2" stroke="#98C9E9" stroke-width="7" stroke-miterlimit="10" cx="460" cy="460" r="388"/>
<circle fill="#66ADDE" stroke="#98C9E9" stroke-width="8" stroke-miterlimit="10" cx="460" cy="460" r="280"/>
<path id="path3686" fill="#98C9E9" d="M586.122,348.915c-67.437,53.98-104.594,63.766-122.81,89.813
	c-8.679,12.411,4.063,25.588,16.037,20.035c27.597-12.8,48.643-47.026,114.722-99.918c7.69-6.156,23.646,16.484,49.933-4.558
	c32.902-26.336,43.695-57.509,33.218-70.598c-9.778-12.216-44.279-6.361-75.083,18.296
	C577.453,321.745,592.461,343.841,586.122,348.915z"/>
<path id="path3642" fill="#98C9E9" d="M299.491,298.863c13.622,14.482,97.223,125.676,137.934,156.318
	c17.009,12.803,28.902-2.136,18.693-17.583c-25.926-39.228-65.567-60.49-148.114-148.25c-11.301-12.015-4.164-19.313-14.723-38.597
	c-9.429-17.217-84.606-86.989-86.239-85.453c-1.863,1.753,59.763,65.444,56.23,68.766c-3.563,3.352-61.653-62.015-64.73-60.771
	c-3.077,1.244,60.114,65.113,55.944,69.035c-4.213,3.962-62.189-63.162-64.443-61.042c-2.253,2.12,59.095,66.072,55.656,69.306
	c-3.785,3.56-62.465-62.902-64.155-61.312c-2.874,2.702,59.698,75.968,75.412,89.095
	C272.671,291.504,285.868,284.38,299.491,298.863z"/>
</svg>
